<svg viewBox="0 0 43 28" fill="none" xmlns="http://www.w3.org/2000/svg">
<path d="M39.7345 4.50713C38.2659 2.6587 36.2402 1.26605 34.012 0.557061C32.9991 0.227889 31.8344 0.025321 30.5936 0C30.4924 0 30.3911 0 30.3151 0C30.1125 0 29.9353 -2.45253e-08 29.7327 0.025321L28.8971 0.101284C28.6946 0.126605 28.5173 0.151926 28.3401 0.202568C28.2388 0.227889 28.1628 0.25321 28.0615 0.25321L27.6564 0.354494C27.5551 0.379815 27.4792 0.405136 27.3779 0.430457L27.2513 0.481099C27.15 0.506419 27.0234 0.53174 26.9221 0.582382C24.8964 1.21541 23.0733 2.40549 21.706 4.05136C20.7691 5.16548 20.0348 6.45685 19.6043 7.8495C19.3764 7.90015 19.1486 7.97611 18.9207 8.07739C16.9203 8.8117 15.4517 10.4322 14.92 12.4832C13.8818 12.0275 12.7424 11.9262 11.6535 12.1794C11.4257 12.23 11.1978 12.306 10.9952 12.382C8.31118 13.3948 6.91853 16.3827 7.93137 19.0414C8.84292 21.4469 11.451 22.8142 13.9831 22.2571C14.211 22.2065 14.4389 22.1305 14.6414 22.0546C15.9075 21.5735 16.9456 20.6366 17.528 19.4212C18.8194 20.2821 20.3893 20.6872 21.9592 20.51C21.4274 21.5988 20.7438 22.5863 19.8829 23.3966C18.4649 24.7639 16.6418 25.7008 14.7427 26.03C13.7045 26.2072 12.7424 26.2325 11.8814 26.1312C10.8686 26.0046 9.95704 25.7514 9.17209 25.3969C7.50091 24.688 6.03229 23.4472 5.04478 21.928C4.08258 20.4087 3.60148 18.6362 3.6268 16.9397C3.65212 15.2685 4.2345 13.572 5.22202 12.2047C5.77908 11.4704 6.33614 10.888 6.96917 10.4069C7.07045 10.331 7.17174 10.2803 7.27302 10.2044C7.34898 10.1537 7.39963 10.1031 7.47559 10.0777L7.7288 9.92582L8.00733 9.79922C8.08329 9.74858 8.15925 9.72326 8.23522 9.67261C8.3365 9.62197 8.43779 9.54601 8.53907 9.52069L9.09613 9.2928C10.5647 8.73574 12.2359 8.63445 13.7805 8.98895C13.8818 9.01427 13.9578 9.03959 14.059 9.03959C14.768 9.14087 15.5023 8.9383 16.0847 8.50785C16.6671 8.05207 17.0469 7.41905 17.1229 6.71006C17.1988 6.00107 17.0216 5.26676 16.5911 4.7097C16.1354 4.12732 15.5023 3.77283 14.7934 3.67154H14.7427C12.8436 3.41833 10.8939 3.59558 9.07081 4.15264C8.38714 4.32989 7.7288 4.60842 7.1211 4.88695L6.2855 5.34273C6.08293 5.44401 5.90569 5.57061 5.72844 5.69722C5.62716 5.74786 5.57652 5.82382 5.47523 5.84915L5.0701 6.12768L4.69028 6.43153C4.61432 6.48217 4.53836 6.55813 4.46239 6.6341C4.31047 6.7607 4.13322 6.91263 3.98129 7.06455C3.12038 7.87482 2.33543 8.86234 1.65176 10.0018C0.436358 12.0275 -0.146025 14.5342 0.0312222 16.9144C0.208469 19.2693 1.12002 21.6241 2.61396 23.4979C4.08258 25.3463 6.10826 26.739 8.3365 27.4479C9.34934 27.7771 10.5141 27.9797 11.7548 28.005C11.8561 28.005 11.9574 28.005 12.0334 28.005C12.2359 28.005 12.4132 28.005 12.6157 27.9797L13.4513 27.9037C13.6539 27.8784 13.8312 27.8531 14.0084 27.8024C14.1097 27.7771 14.1856 27.7518 14.2869 27.7518L14.7174 27.6505C14.8187 27.6252 14.8946 27.5999 14.9959 27.5745L15.1225 27.5239C17.2495 26.9415 19.2245 25.6755 20.6678 23.979C21.6047 22.8648 22.339 21.5735 22.7695 20.2061C22.9973 20.1555 23.2252 20.0795 23.4784 19.9783C25.4788 19.2439 26.9474 17.6234 27.4792 15.5724C28.5173 16.0282 29.6568 16.1295 30.7456 15.8763C30.9735 15.8256 31.2013 15.7496 31.4039 15.6737C34.0879 14.6608 35.4806 11.6983 34.4677 9.03959C33.5562 6.6341 30.9481 5.26676 28.416 5.82382C28.1881 5.87447 27.9603 5.95043 27.7577 6.02639C26.4916 6.50749 25.4535 7.44437 24.8711 8.65977C23.5797 7.77354 22.0098 7.39372 20.4399 7.57097C20.9717 6.48217 21.6553 5.49465 22.5162 4.68438C23.9342 3.31705 25.7573 2.38017 27.6564 2.051C28.6946 1.87375 29.6568 1.84843 30.5177 1.94972C31.5305 2.07632 32.4421 2.32953 33.2523 2.68402C34.9235 3.39301 36.3921 4.63374 37.3797 6.153C38.3419 7.67226 38.823 9.44472 38.7976 11.1412C38.7723 12.8124 38.1899 14.5089 37.2024 15.8763C36.6453 16.6106 36.0883 17.1929 35.4553 17.674C35.354 17.75 35.2527 17.8006 35.1514 17.8766C35.0755 17.9273 35.0248 17.9779 34.9488 18.0032L34.6956 18.1551L34.4171 18.2817C34.3411 18.3324 34.2652 18.3577 34.1892 18.4084C34.0879 18.459 33.9866 18.535 33.8854 18.5603L33.3283 18.7882C31.8597 19.3452 30.1885 19.4465 28.6439 19.092C28.5426 19.0667 28.4667 19.0414 28.3654 19.0414C26.8715 18.8388 25.5041 19.877 25.2762 21.3709C25.0737 22.8395 26.1371 24.2069 27.6311 24.4094H27.6817C30.2898 24.7386 32.9738 24.3081 35.278 23.1687L36.1136 22.7129C36.3162 22.6116 36.4934 22.485 36.6707 22.3584C36.772 22.3078 36.8226 22.2318 36.9239 22.2065L37.329 21.928L37.7088 21.6241C37.7848 21.5735 37.8608 21.4975 37.9367 21.4215C38.0886 21.2949 38.2659 21.143 38.4178 21.0164C39.2787 20.2061 40.0637 19.2186 40.7473 18.0792C41.9881 15.9269 42.5705 13.3948 42.3679 11.0146C42.14 8.73574 41.2284 6.38089 39.7345 4.50713ZM14.2616 17.7753C14.0844 18.1551 13.7805 18.459 13.3754 18.6109C13.2994 18.6362 13.2488 18.6616 13.1728 18.6616C12.4132 18.8388 11.6282 18.4084 11.3244 17.674C11.1725 17.2942 11.1978 16.8638 11.375 16.484C11.5523 16.1041 11.8561 15.8256 12.2613 15.6737C12.3372 15.6484 12.3879 15.623 12.4638 15.623C13.2488 15.4458 14.0084 15.8509 14.3123 16.6106C14.4389 16.9651 14.4389 17.3955 14.2616 17.7753ZM28.1122 10.255C28.2894 9.87518 28.5933 9.57133 28.9984 9.44472C29.0744 9.4194 29.125 9.39408 29.201 9.39408C29.9606 9.21684 30.7456 9.64729 31.0494 10.3816C31.3533 11.1919 30.9481 12.1034 30.1125 12.382C30.0619 12.4073 29.9859 12.4326 29.91 12.4326C29.1503 12.6098 28.3654 12.2047 28.0615 11.4451C27.9349 11.0653 27.9349 10.6348 28.1122 10.255ZM23.5291 13.1416C23.757 13.7493 23.7317 14.433 23.4784 15.0153C23.1999 15.623 22.6935 16.0788 22.0858 16.3067C21.9845 16.3574 21.8832 16.3827 21.7819 16.408C20.5665 16.6865 19.3258 16.0282 18.8953 14.8634C18.4142 13.5974 19.0473 12.1794 20.364 11.673C20.4653 11.6223 20.5665 11.597 20.6678 11.5717C21.8326 11.3438 23.0986 11.9768 23.5291 13.1416Z" fill="url(#paint0_linear_7080_27431)"/>
<defs>
<linearGradient id="paint0_linear_7080_27431" x1="21.2033" y1="-0.985203" x2="21.2033" y2="29.4974" gradientUnits="userSpaceOnUse">
<stop stop-color="#B3D9FF"/>
<stop offset="0.6926" stop-color="#6136FF"/>
</linearGradient>
</defs>
</svg>
